<svg width="24" height="24" viewBox="0 0 24 24" fill="none" xmlns="http://www.w3.org/2000/svg">
<path d="M6.83902 15.89C6.58235 15.7453 6.37835 15.5486 6.22702 15.3C6.07568 15.0506 6.00002 14.7713 6.00002 14.462V10.585L4.40802 9.70198C4.26268 9.61531 4.15468 9.51264 4.08402 9.39398C4.01335 9.27531 3.97868 9.14398 3.98002 8.99998C3.98135 8.85598 4.01668 8.72464 4.08602 8.60598C4.15535 8.48731 4.26302 8.38464 4.40902 8.29798L11.229 4.57798C11.3504 4.51064 11.4754 4.46264 11.604 4.43398C11.7327 4.40531 11.8647 4.39064 12 4.38998C12.1354 4.38931 12.2677 4.40398 12.397 4.43398C12.5264 4.46398 12.6517 4.51164 12.773 4.57698L20.494 8.76398C20.6353 8.84731 20.742 8.95164 20.814 9.07698C20.8867 9.20298 20.923 9.33898 20.923 9.48498V14.885C20.923 15.0263 20.875 15.145 20.779 15.241C20.683 15.337 20.5644 15.385 20.423 15.385C20.2817 15.385 20.1627 15.337 20.066 15.241C19.9694 15.145 19.9217 15.0263 19.923 14.885V9.56198L18 10.585V14.462C18 14.7713 17.9244 15.0506 17.773 15.3C17.6217 15.5493 17.418 15.746 17.162 15.89L12.777 18.264C12.653 18.334 12.5264 18.3836 12.397 18.413C12.2677 18.4423 12.1354 18.4566 12 18.456C11.8647 18.4553 11.7324 18.441 11.603 18.413C11.4737 18.385 11.347 18.335 11.223 18.263L6.83902 15.89ZM11.769 12.585C11.859 12.6356 11.939 12.661 12.009 12.661C12.0797 12.661 12.16 12.6356 12.25 12.585L18.83 8.99998L12.25 5.43498C12.1607 5.38364 12.0807 5.35798 12.01 5.35798C11.9394 5.35798 11.8594 5.38364 11.77 5.43498L5.17002 8.99998L11.769 12.585ZM11.75 17.417C11.84 17.4683 11.9234 17.494 12 17.494C12.0767 17.494 12.16 17.4683 12.25 17.417L16.712 15.006C16.8147 14.942 16.888 14.8683 16.932 14.785C16.976 14.7016 16.9987 14.5956 17 14.467V11.135L12.783 13.437C12.6584 13.507 12.5317 13.5566 12.403 13.586C12.2757 13.6146 12.1414 13.629 12 13.629C11.8587 13.629 11.724 13.6146 11.596 13.586C11.468 13.5573 11.3417 13.5073 11.217 13.436L7.00002 11.136V14.468C7.00002 14.5706 7.02235 14.6703 7.06702 14.767C7.11168 14.863 7.18535 14.943 7.28802 15.007L11.75 17.417Z" fill="#7127BA"/>
</svg>
